<svg width="400" height="400" viewBox="0 0 400 400" fill="none" xmlns="http://www.w3.org/2000/svg">
<path fill-rule="evenodd" clip-rule="evenodd" d="M136 92C96.7878 92 65 123.788 65 163C65 202.212 96.7878 234 136 234H145C151.116 234 157.051 233.227 162.713 231.773C170.046 229.889 183 239.929 183 247.5V247.5C183 286.436 214.564 318 253.5 318H263.5C302.436 318 334 286.436 334 247.5C334 208.564 302.436 177 263.5 177H253.5C247.659 177 241.983 177.71 236.555 179.05C229.123 180.883 216 170.655 216 163V163C216 123.788 184.212 92 145 92H136Z" fill="url(#paint0_linear_8_818)"/>
<path d="M191 234H328V243.5C328 281.332 297.332 312 259.5 312V312C221.668 312 191 281.332 191 243.5V234Z" fill="url(#paint1_linear_8_818)"/>
<path d="M191 234C191 198.654 219.654 170 255 170H264C299.346 170 328 198.654 328 234V234C328 269.346 299.346 298 264 298H255C219.654 298 191 269.346 191 234V234Z" fill="#279D66"/>
<path fill-rule="evenodd" clip-rule="evenodd" d="M256.019 230.584C256.201 227.613 254.763 224.555 251.706 222.976L215.836 204.446C213.873 203.432 211.46 204.201 210.446 206.164C210.061 206.911 209.933 207.722 210.031 208.497C209.988 208.832 209.989 209.168 210.031 209.497C209.988 209.832 209.989 210.168 210.031 210.497C209.826 212.115 210.631 213.762 212.164 214.554L245.131 231.584L212.164 248.613C210.631 249.406 209.826 251.052 210.031 252.67C209.989 252.999 209.988 253.335 210.031 253.67C209.989 253.999 209.988 254.335 210.031 254.67C209.933 255.445 210.061 256.257 210.446 257.003C211.46 258.966 213.873 259.735 215.836 258.721L251.706 240.191C254.763 238.612 256.201 235.554 256.019 232.584C256.04 232.251 256.04 231.917 256.019 231.584C256.04 231.251 256.04 230.917 256.019 230.584Z" fill="#1D744B"/>
<path fill-rule="evenodd" clip-rule="evenodd" d="M255.973 234.083C255.671 231.625 254.248 229.289 251.706 227.976L215.836 209.446C213.873 208.432 211.46 209.201 210.446 211.164C210.306 211.435 210.2 211.715 210.126 211.999C210.401 213.063 211.111 214.01 212.164 214.554L245.131 231.584L243.195 232.584L248.035 235.084L212.164 253.613C211.111 254.158 210.401 255.105 210.126 256.169C210.2 256.453 210.306 256.732 210.446 257.003C211.46 258.966 213.873 259.735 215.836 258.721L250.891 240.613L251.706 240.191C254.249 238.878 255.671 236.541 255.973 234.083Z" fill="#A9D1BF"/>
<path d="M298 265H258V262H298V265Z" stroke="#1D744B" stroke-width="8" stroke-linecap="round" stroke-linejoin="round"/>
<path fill-rule="evenodd" clip-rule="evenodd" d="M301.874 266.001C301.43 267.725 299.864 269 298 269H258C256.136 269 254.57 267.725 254.126 265.999C254.57 264.275 256.136 263 258 263H298C299.864 263 301.43 264.275 301.874 266.001Z" fill="#A9D1BF"/>
<path d="M72 149H209V158.5C209 196.332 178.332 227 140.5 227V227C102.668 227 72 196.332 72 158.5V149Z" fill="url(#paint2_linear_8_818)"/>
<path d="M72 149C72 113.654 100.654 85 136 85H145C180.346 85 209 113.654 209 149V149C209 184.346 180.346 213 145 213H136C100.654 213 72 184.346 72 149V149Z" fill="#454052"/>
<path fill-rule="evenodd" clip-rule="evenodd" d="M137.019 145.584C137.201 142.613 135.763 139.555 132.706 137.976L96.8358 119.446C94.8731 118.432 92.46 119.201 91.4461 121.164C91.0606 121.911 90.9329 122.722 91.0306 123.497C90.9882 123.832 90.9891 124.168 91.0306 124.497C90.9882 124.832 90.9891 125.168 91.0306 125.497C90.8258 127.115 91.6307 128.762 93.1642 129.554L126.131 146.584L93.1642 163.613C91.6307 164.406 90.8258 166.052 91.0306 167.67C90.9891 167.999 90.9882 168.335 91.0306 168.67C90.9891 168.999 90.9882 169.335 91.0306 169.67C90.9329 170.445 91.0606 171.257 91.4461 172.003C92.46 173.966 94.8731 174.735 96.8358 173.721L132.706 155.191C135.763 153.612 137.201 150.554 137.019 147.584C137.04 147.251 137.04 146.917 137.019 146.584C137.04 146.251 137.04 145.917 137.019 145.584Z" fill="#241F31"/>
<path fill-rule="evenodd" clip-rule="evenodd" d="M136.973 149.083C136.671 146.625 135.248 144.289 132.706 142.976L96.8358 124.446C94.8731 123.432 92.46 124.201 91.4462 126.164C91.3061 126.435 91.2 126.715 91.1265 126.999C91.4012 128.063 92.1107 129.01 93.164 129.554L126.131 146.584L124.195 147.584L129.035 150.084L93.1642 168.613C92.1107 169.158 91.4011 170.105 91.1265 171.169C91.2 171.453 91.306 171.732 91.446 172.003C92.4599 173.966 94.873 174.735 96.8357 173.721L131.891 155.613L132.706 155.191C135.249 153.878 136.671 151.541 136.973 149.083Z" fill="#726C80"/>
<path d="M179 180H139V177H179V180Z" stroke="#241F31" stroke-width="8" stroke-linecap="round" stroke-linejoin="round"/>
<path fill-rule="evenodd" clip-rule="evenodd" d="M182.874 181.001C182.43 182.725 180.864 184 179 184H139C137.136 184 135.57 182.725 135.126 180.999C135.57 179.275 137.136 178 139 178H179C180.864 178 182.43 179.275 182.874 181.001Z" fill="#726C80"/>
<g filter="url(#filter0_d_8_818)">
<path d="M211.952 239.188L196.795 218.841L215.66 211.776L161.198 177.554L180.05 249.936L189.131 229.158L202.755 248.134L211.952 239.188Z" fill="#FF3D3D"/>
<path d="M211.952 239.188L196.795 218.841L215.66 211.776L161.198 177.554L180.05 249.936L189.131 229.158L202.755 248.134L211.952 239.188Z" fill="#FF3D3D" stroke="white" stroke-width="5"/>
</g>
<defs>
<filter id="filter0_d_8_818" x="137.589" y="162.483" width="83.6771" height="100.669" filterUnits="userSpaceOnUse" color-interpolation-filters="sRGB">
<feFlood flood-opacity="0" result="BackgroundImageFix"/>
<feColorMatrix in="SourceAlpha" type="matrix" values="0 0 0 0 0 0 0 0 0 0 0 0 0 0 0 0 0 0 127 0" result="hardAlpha"/>
<feOffset dx="-12" dy="-2"/>
<feGaussianBlur stdDeviation="3.8"/>
<feComposite in2="hardAlpha" operator="out"/>
<feColorMatrix type="matrix" values="0 0 0 0 0 0 0 0 0 0 0 0 0 0 0 0 0 0 0.5 0"/>
<feBlend mode="normal" in2="BackgroundImageFix" result="effect1_dropShadow_8_818"/>
<feBlend mode="normal" in="SourceGraphic" in2="effect1_dropShadow_8_818" result="shape"/>
</filter>
<linearGradient id="paint0_linear_8_818" x1="317.5" y1="305" x2="171.684" y2="61.5884" gradientUnits="userSpaceOnUse">
<stop stop-color="#F19999"/>
<stop offset="1" stop-color="#B41A1A"/>
</linearGradient>
<linearGradient id="paint1_linear_8_818" x1="186.5" y1="312" x2="329" y2="312" gradientUnits="userSpaceOnUse">
<stop stop-color="#279D66"/>
<stop offset="0.5" stop-color="#1D744B"/>
<stop offset="1" stop-color="#279D66"/>
</linearGradient>
<linearGradient id="paint2_linear_8_818" x1="67.5" y1="227" x2="210" y2="227" gradientUnits="userSpaceOnUse">
<stop stop-color="#454052"/>
<stop offset="0.5" stop-color="#241F31"/>
<stop offset="1" stop-color="#454052"/>
</linearGradient>
</defs>
</svg>
