<svg width="400" height="280" viewBox="0 0 400 280" fill="none" xmlns="http://www.w3.org/2000/svg">
<path fill-rule="evenodd" clip-rule="evenodd" d="M199 19C163.654 19 135 47.6538 135 83V83C135 118.346 106.346 147 71 147H70C34.6538 147 6 175.654 6 211C6 246.346 34.6538 275 70 275H329C364.346 275 393 246.346 393 211C393 175.654 364.346 147 329 147H325C360.346 147 389 118.346 389 83C389 47.6538 360.346 19 325 19H199Z" fill="url(#paint0_linear_6_690)"/>
<rect x="180" y="58" width="22" height="36" rx="11" fill="#59226C"/>
<rect x="180" y="58" width="22" height="22" rx="11" fill="#793691"/>
<rect x="111" y="111" width="22" height="34" rx="11" fill="#905400"/>
<path d="M199 259H336V273H199V259Z" fill="url(#paint1_linear_6_690)"/>
<path d="M199 131H336V259H199V131Z" fill="#279D66"/>
<path fill-rule="evenodd" clip-rule="evenodd" d="M264.019 191.584C264.201 188.613 262.763 185.555 259.706 183.976L223.836 165.446C221.873 164.432 219.46 165.201 218.446 167.164C218.061 167.911 217.933 168.722 218.031 169.497C217.988 169.832 217.989 170.168 218.031 170.497C217.988 170.832 217.989 171.168 218.031 171.497C217.826 173.115 218.631 174.762 220.164 175.554L253.131 192.584L220.164 209.613C218.631 210.406 217.826 212.052 218.031 213.67C217.989 213.999 217.988 214.335 218.031 214.67C217.989 214.999 217.988 215.335 218.031 215.67C217.933 216.445 218.061 217.257 218.446 218.003C219.46 219.966 221.873 220.735 223.836 219.721L259.706 201.191C262.763 199.612 264.201 196.554 264.019 193.584C264.04 193.251 264.04 192.917 264.019 192.584C264.04 192.251 264.04 191.917 264.019 191.584Z" fill="#1D744B"/>
<path fill-rule="evenodd" clip-rule="evenodd" d="M263.973 195.083C263.671 192.625 262.248 190.289 259.706 188.976L223.836 170.446C221.873 169.432 219.46 170.201 218.446 172.164C218.306 172.435 218.2 172.715 218.126 172.999C218.401 174.063 219.111 175.01 220.164 175.554L253.131 192.584L251.195 193.584L256.035 196.084L220.164 214.613C219.111 215.158 218.401 216.105 218.126 217.169C218.2 217.453 218.306 217.732 218.446 218.003C219.46 219.966 221.873 220.735 223.836 219.721L258.891 201.613L259.706 201.191C262.249 199.878 263.671 197.541 263.973 195.083Z" fill="#A9D1BF"/>
<path d="M306 226H266V223H306V226Z" stroke="#1D744B" stroke-width="8" stroke-linecap="round" stroke-linejoin="round"/>
<path fill-rule="evenodd" clip-rule="evenodd" d="M309.874 227.001C309.43 228.725 307.864 230 306 230H266C264.136 230 262.57 228.725 262.126 226.999C262.57 225.275 264.136 224 266 224H306C307.864 224 309.43 225.275 309.874 227.001Z" fill="#A9D1BF"/>
<path d="M62 145H199V273H62V145Z" fill="#905400"/>
<rect x="62" y="131" width="137" height="128" fill="#FFA72D"/>
<path d="M149.874 199H109.874V196H149.874V199Z" stroke="#905400" stroke-width="8" stroke-linecap="round" stroke-linejoin="round"/>
<path fill-rule="evenodd" clip-rule="evenodd" d="M153.748 200.001C153.304 201.725 151.738 203 149.874 203H109.874C108.01 203 106.444 201.725 106 199.999C106.444 198.275 108.01 197 109.874 197H149.874C151.738 197 153.304 198.275 153.748 200.001Z" fill="#F2E1C8"/>
<path d="M199 3H336V131H199V3Z" fill="#793691"/>
<path d="M286.874 72H246.874V69H286.874V72Z" stroke="#59226C" stroke-width="8" stroke-linecap="round" stroke-linejoin="round"/>
<path fill-rule="evenodd" clip-rule="evenodd" d="M290.748 73.0005C290.304 74.7255 288.738 76 286.874 76H246.874C245.01 76 243.444 74.725 243 72.9995C243.444 71.2745 245.01 70 246.874 70H286.874C288.738 70 290.304 71.275 290.748 73.0005Z" fill="#DCC2E6"/>
<path d="M267 87V47H267V87H267Z" stroke="#59226C" stroke-width="8" stroke-linecap="round" stroke-linejoin="round"/>
<path d="M267 92V52" stroke="#DCC2E6" stroke-width="8" stroke-linecap="round"/>
<rect x="196" y="184" width="22" height="22" rx="11" fill="#FFA72D"/>
<rect x="111" y="111" width="22" height="22" rx="11" fill="#FFA72D"/>
<rect x="256" y="112" width="22" height="22" rx="11" fill="#279D66"/>
<defs>
<linearGradient id="paint0_linear_6_690" x1="372.5" y1="43.5" x2="31" y2="265" gradientUnits="userSpaceOnUse">
<stop stop-color="#99C1F1"/>
<stop offset="1" stop-color="#1A5FB4"/>
</linearGradient>
<linearGradient id="paint1_linear_6_690" x1="194.5" y1="273" x2="337" y2="273" gradientUnits="userSpaceOnUse">
<stop stop-color="#1D744B"/>
</linearGradient>
</defs>
</svg>
