<svg width="480" height="366" viewBox="0 0 480 366" fill="none" xmlns="http://www.w3.org/2000/svg">
<path fill-rule="evenodd" clip-rule="evenodd" d="M22 93.5C22 63.9528 45.9528 40 75.5 40H249.5C279.047 40 303 63.9528 303 93.5V93.5C303 123.047 326.953 147 356.5 147H399C428.271 147 452 170.729 452 200V201.5C452 229.943 428.943 253 400.5 253V253C372.057 253 349 276.057 349 304.5V306.5C349 336.047 325.047 360 295.5 360H53.5C23.9528 360 0 336.047 0 306.5V306.5C0 276.953 23.9528 253 53.5 253H72C101.271 253 125 229.271 125 200V198.5C125 170.057 101.943 147 73.5 147V147C45.0573 147 22 123.943 22 95.5V93.5Z" fill="url(#paint0_linear_1_612)"/>
<path d="M52 271C52 248.909 69.9086 231 92 231H229C251.091 231 269 248.909 269 271V319C269 341.091 251.091 359 229 359H52V271Z" fill="url(#paint1_linear_1_612)"/>
<path d="M52 257C52 234.909 69.9086 217 92 217H229C251.091 217 269 234.909 269 257V305C269 327.091 251.091 345 229 345H52V257Z" fill="#3D98FF"/>
<path d="M231.261 311H77.1594V308H231.261V311Z" stroke="#3075C4" stroke-width="8" stroke-linecap="round" stroke-linejoin="round"/>
<path fill-rule="evenodd" clip-rule="evenodd" d="M235.135 312C234.691 313.725 233.125 315 231.261 315H77.1597C75.2959 315 73.7298 313.725 73.2858 312C73.7298 310.275 75.2959 309 77.1597 309H231.261C233.125 309 234.691 310.275 235.135 312Z" fill="#C5E0FF"/>
<path d="M269 164C269 141.909 286.909 124 309 124H366C388.091 124 406 141.909 406 164V252H309C286.909 252 269 234.091 269 212V164Z" fill="url(#paint2_linear_1_612)"/>
<path d="M269 150C269 127.909 286.909 110 309 110H366C388.091 110 406 127.909 406 150V238H309C286.909 238 269 220.091 269 198V150Z" fill="#279D66"/>
<path fill-rule="evenodd" clip-rule="evenodd" d="M334.019 170.584C334.201 167.613 332.763 164.555 329.706 162.976L293.836 144.446C291.873 143.432 289.46 144.201 288.446 146.164C288.061 146.911 287.933 147.722 288.031 148.497C287.988 148.832 287.989 149.168 288.031 149.497C287.988 149.832 287.989 150.168 288.031 150.497C287.826 152.115 288.631 153.762 290.164 154.554L323.131 171.584L290.164 188.613C288.631 189.406 287.826 191.052 288.031 192.67C287.989 192.999 287.988 193.335 288.031 193.67C287.989 193.999 287.988 194.335 288.031 194.67C287.933 195.445 288.061 196.257 288.446 197.003C289.46 198.966 291.873 199.735 293.836 198.721L329.706 180.191C332.763 178.612 334.201 175.554 334.019 172.584C334.04 172.251 334.04 171.917 334.019 171.584C334.04 171.251 334.04 170.917 334.019 170.584Z" fill="#1D744B"/>
<path fill-rule="evenodd" clip-rule="evenodd" d="M333.973 174.083C333.671 171.625 332.248 169.289 329.706 167.976L293.836 149.446C291.873 148.432 289.46 149.201 288.446 151.164C288.306 151.435 288.2 151.715 288.126 151.999C288.401 153.063 289.111 154.01 290.164 154.554L323.131 171.584L321.195 172.584L326.035 175.084L290.164 193.613C289.111 194.158 288.401 195.105 288.126 196.169C288.2 196.453 288.306 196.732 288.446 197.003C289.46 198.966 291.873 199.735 293.836 198.721L328.891 180.613L329.706 180.191C332.249 178.878 333.671 176.541 333.973 174.083Z" fill="#A9D1BF"/>
<path d="M376 205H336V202H376V205Z" stroke="#1D744B" stroke-width="8" stroke-linecap="round" stroke-linejoin="round"/>
<path fill-rule="evenodd" clip-rule="evenodd" d="M379.874 206.001C379.43 207.725 377.864 209 376 209H336C334.136 209 332.57 207.725 332.126 205.999C332.57 204.275 334.136 203 336 203H376C377.864 203 379.43 204.275 379.874 206.001Z" fill="#A9D1BF"/>
<path d="M52 59C52 36.9086 69.9086 19 92 19H229C251.091 19 269 36.9086 269 59V107C269 129.091 251.091 147 229 147H92C69.9086 147 52 129.091 52 107V59Z" fill="url(#paint3_linear_1_612)"/>
<path d="M52 45C52 22.9086 69.9086 5 92 5H229C251.091 5 269 22.9086 269 45V93C269 115.091 251.091 133 229 133H92C69.9086 133 52 115.091 52 93V45Z" fill="#454052"/>
<path fill-rule="evenodd" clip-rule="evenodd" d="M117.019 65.5836C117.201 62.6133 115.763 59.5551 112.706 57.976L76.8358 39.4461C74.8731 38.4322 72.46 39.2014 71.4461 41.1642C71.0606 41.9106 70.9329 42.7222 71.0306 43.4971C70.9882 43.8319 70.9891 44.1678 71.0306 44.4971C70.9882 44.8319 70.9891 45.1678 71.0306 45.4971C70.8258 47.1154 71.6307 48.7616 73.1642 49.5538L106.131 66.5836L73.1642 83.6134C71.6307 84.4056 70.8258 86.0519 71.0306 87.6701C70.9891 87.9995 70.9882 88.3354 71.0306 88.6701C70.9891 88.9995 70.9882 89.3354 71.0306 89.6701C70.9329 90.4451 71.0606 91.2567 71.4461 92.0031C72.46 93.9658 74.8731 94.735 76.8358 93.7211L112.706 75.1913C115.763 73.6122 117.201 70.554 117.019 67.5836C117.04 67.2507 117.04 66.9166 117.019 66.5836C117.04 66.2507 117.04 65.9166 117.019 65.5836Z" fill="#241F31"/>
<path fill-rule="evenodd" clip-rule="evenodd" d="M116.973 69.0831C116.671 66.6253 115.248 64.2892 112.706 62.976L76.8358 44.4461C74.8731 43.4322 72.46 44.2014 71.4462 46.1642C71.3061 46.4353 71.2 46.7151 71.1265 46.9986C71.4012 48.0627 72.1107 49.0097 73.164 49.5538L106.131 66.5836L104.195 67.5836L109.035 70.0836L73.1642 88.6134C72.1107 89.1576 71.4011 90.1049 71.1265 91.1692C71.2 91.4525 71.306 91.7321 71.446 92.0031C72.4599 93.9658 74.873 94.735 76.8357 93.7211L111.891 75.6125L112.706 75.1913C115.249 73.8779 116.671 71.5413 116.973 69.0831Z" fill="#726C80"/>
<path d="M159 100H119V97H159V100Z" stroke="#241F31" stroke-width="8" stroke-linecap="round" stroke-linejoin="round"/>
<path fill-rule="evenodd" clip-rule="evenodd" d="M162.874 101.001C162.43 102.725 160.864 104 159 104H119C117.136 104 115.57 102.725 115.126 100.999C115.57 99.2745 117.136 98 119 98H159C160.864 98 162.43 99.275 162.874 101.001Z" fill="#726C80"/>
<g filter="url(#filter0_d_1_612)">
<path d="M300.204 189.644L281.031 166.536L304.895 158.514L236 119.649L259.848 201.851L271.336 178.254L288.57 199.803L300.204 189.644Z" fill="black"/>
<path d="M300.204 189.644L281.031 166.536L304.895 158.514L236 119.649L259.848 201.851L271.336 178.254L288.57 199.803L300.204 189.644Z" stroke="white" stroke-width="5"/>
</g>
<defs>
<filter id="filter0_d_1_612" x="212.274" y="104.792" width="98.8021" height="109.51" filterUnits="userSpaceOnUse" color-interpolation-filters="sRGB">
<feFlood flood-opacity="0" result="BackgroundImageFix"/>
<feColorMatrix in="SourceAlpha" type="matrix" values="0 0 0 0 0 0 0 0 0 0 0 0 0 0 0 0 0 0 127 0" result="hardAlpha"/>
<feOffset dx="-12" dy="-2"/>
<feGaussianBlur stdDeviation="3.8"/>
<feComposite in2="hardAlpha" operator="out"/>
<feColorMatrix type="matrix" values="0 0 0 0 0 0 0 0 0 0 0 0 0 0 0 0 0 0 0.5 0"/>
<feBlend mode="normal" in2="BackgroundImageFix" result="effect1_dropShadow_1_612"/>
<feBlend mode="normal" in="SourceGraphic" in2="effect1_dropShadow_1_612" result="shape"/>
</filter>
<linearGradient id="paint0_linear_1_612" x1="322.891" y1="353.874" x2="-49.6685" y2="132.822" gradientUnits="userSpaceOnUse">
<stop stop-color="#FF7800"/>
<stop offset="1" stop-color="#A51D2D"/>
</linearGradient>
<linearGradient id="paint1_linear_1_612" x1="50.4275" y1="359" x2="269" y2="359" gradientUnits="userSpaceOnUse">
<stop offset="0.0360665" stop-color="#3075C4"/>
<stop offset="1" stop-color="#3075C4"/>
</linearGradient>
<linearGradient id="paint2_linear_1_612" x1="264.5" y1="252" x2="407" y2="252" gradientUnits="userSpaceOnUse">
<stop stop-color="#1D744B"/>
<stop offset="0.134956" stop-color="#279D66"/>
<stop offset="0.343792" stop-color="#1D744B"/>
</linearGradient>
<linearGradient id="paint3_linear_1_612" x1="44.8723" y1="147" x2="270.584" y2="147" gradientUnits="userSpaceOnUse">
<stop stop-color="#241F31"/>
<stop offset="0.1" stop-color="#454052"/>
<stop offset="0.230656" stop-color="#241F31"/>
<stop offset="0.780461" stop-color="#241F31"/>
<stop offset="0.90264" stop-color="#454052"/>
<stop offset="1" stop-color="#241F31"/>
</linearGradient>
</defs>
</svg>
