<?xml version="1.0" standalone="no"?>
<!DOCTYPE svg PUBLIC "-//W3C//DTD SVG 20010904//EN"
 "http://www.w3.org/TR/2001/REC-SVG-20010904/DTD/svg10.dtd">
<svg version="1.0" xmlns="http://www.w3.org/2000/svg"
 width="512.000000pt" height="512.000000pt" viewBox="0 0 512.000000 512.000000"
 preserveAspectRatio="xMidYMid meet">

<g transform="translate(0.000000,512.000000) scale(0.100000,-0.100000)"
fill="#000000" stroke="none">
<path d="M2320 5050 c-389 -40 -744 -158 -1071 -356 -633 -382 -1068 -1044
-1175 -1789 -24 -165 -24 -524 0 -690 56 -390 231 -815 472 -1140 135 -183
327 -379 504 -514 273 -209 645 -377 982 -446 844 -170 1660 57 2255 628 400
384 657 859 753 1387 119 662 -48 1377 -447 1908 -410 545 -989 894 -1658 998
-118 18 -490 27 -615 14z m-4 -672 c0 -98 25 -211 64 -288 l20 -39 -31 11
c-34 12 -120 6 -163 -11 -41 -17 -29 -21 29 -10 60 12 141 3 175 -19 14 -9 27
-15 30 -15 9 3 40 -30 40 -41 -1 -6 -10 0 -20 13 -11 13 -20 19 -20 14 0 -6 9
-18 20 -28 11 -10 20 -14 20 -10 0 5 10 -1 23 -12 36 -35 100 -62 152 -68 l50
-5 -31 14 c-61 29 -132 120 -149 191 -6 29 -6 29 19 -8 61 -90 163 -157 239
-157 48 0 48 0 33 -22 -18 -25 -22 -103 -6 -113 6 -4 10 5 10 19 0 19 5 26 19
26 11 0 23 -5 27 -11 4 -8 13 -4 25 12 12 15 19 19 19 10 0 -11 3 -10 13 3 25
34 30 -11 8 -58 l-20 -41 25 29 c22 25 25 37 22 83 -1 29 0 53 4 53 4 0 24
-14 45 -32 21 -18 40 -34 42 -35 2 -2 -1 -19 -7 -39 l-11 -37 27 25 c15 14 37
29 50 33 19 6 22 3 22 -23 0 -63 -58 -197 -90 -207 -31 -10 -13 -25 20 -18 17
3 30 2 30 -1 0 -4 -19 -42 -42 -84 -51 -93 -103 -151 -162 -183 -44 -23 -45
-24 -52 -87 -10 -94 0 -222 19 -259 19 -36 81 -73 121 -73 39 0 38 -14 -2 -52
-54 -51 -335 -238 -358 -238 -5 0 -27 16 -49 36 -22 20 -74 62 -115 94 -41 31
-97 81 -125 110 l-49 54 50 11 c66 15 73 20 97 74 16 37 20 68 21 161 l1 114
-60 34 c-108 60 -176 142 -229 279 -40 101 -68 194 -61 201 2 3 0 13 -5 23
-16 29 5 31 44 4 21 -14 36 -19 34 -12 -3 13 7 28 54 78 37 40 46 36 41 -14
-4 -28 0 -54 10 -73 15 -28 15 -28 12 24 -3 44 -1 54 16 63 26 13 32 7 31 -31
-1 -38 18 -47 50 -26 38 25 45 0 14 -44 -6 -9 -1 -5 12 8 32 34 29 83 -7 124
-28 31 -33 33 -100 33 -39 0 -71 3 -71 8 0 4 -5 7 -11 7 -5 0 -7 -4 -4 -10 3
-5 -12 -17 -33 -27 -22 -9 -38 -22 -35 -29 4 -10 -15 -23 -43 -29 -17 -4 -6
57 26 150 16 44 58 165 95 269 56 162 79 216 90 216 1 0 1 -42 1 -92z m-476
14 c0 -4 -16 -55 -35 -113 -64 -188 -194 -717 -225 -912 -9 -60 -8 -73 9 -112
22 -51 136 -204 157 -212 20 -7 17 -17 -8 -28 -37 -17 -61 -61 -66 -119 -4
-45 -8 -56 -29 -67 -34 -18 -95 -99 -179 -237 -130 -212 -117 -184 -293 -637
-28 -72 -74 -164 -114 -227 -100 -160 -97 -143 -46 -243 42 -82 43 -86 29
-113 -27 -47 -42 -39 -112 60 -210 300 -326 618 -360 993 -29 325 45 700 202
1021 195 396 494 692 905 891 123 59 165 73 165 55z m1670 -68 c604 -323 992
-902 1060 -1583 50 -500 -96 -1022 -401 -1428 -25 -34 -49 -60 -53 -56 -17 18
-1 75 45 161 30 55 51 108 52 127 1 35 -28 85 -124 216 -40 54 -62 105 -129
290 -85 233 -247 583 -311 669 -29 40 -33 51 -30 96 3 60 -14 99 -60 138 l-31
26 42 49 c22 28 57 80 77 118 34 66 35 71 30 148 -3 44 -17 132 -32 195 -34
148 -179 699 -211 798 -13 42 -24 78 -24 79 0 8 23 -2 100 -43z m-670 -245 c0
-4 -11 -6 -25 -6 -28 0 -38 13 -60 80 l-15 42 50 -55 c27 -30 50 -58 50 -61z
m48 -73 c18 -24 32 -47 32 -50 0 -3 -12 -6 -27 -6 -22 0 -35 11 -61 50 l-32
50 28 0 c22 0 36 -10 60 -44z m128 -38 c30 -47 34 -82 5 -50 -10 12 -26 22
-35 22 -18 0 -22 7 -30 64 -5 38 -5 38 16 20 11 -11 31 -36 44 -56z m81 -60
c21 -42 23 -58 9 -58 -21 0 -36 24 -34 54 3 32 11 33 25 4z m-213 -36 c7 -12
-11 -35 -22 -28 -6 3 -14 1 -18 -5 -4 -8 -9 -7 -15 2 -12 18 -11 32 0 24 5 -3
12 -1 16 5 7 12 32 13 39 2z m-504 -8 c0 -3 -7 -12 -15 -20 -12 -13 -15 -13
-15 -1 0 7 3 17 7 20 8 8 23 9 23 1z m-421 -161 c0 -16 -4 -46 -8 -68 -8 -37
-9 -35 -10 28 -1 39 3 67 9 67 6 0 10 -12 9 -27z m1284 -45 c-2 -5 3 -8 11 -8
9 0 16 -5 16 -12 0 -13 -48 -98 -55 -98 -3 0 -5 12 -5 26 0 14 4 23 9 20 5 -3
9 6 9 22 3 98 3 98 11 77 5 -11 7 -23 4 -27z m-1161 -20 c-6 -6 -12 -5 -17 3
-5 8 -4 10 3 5 8 -5 12 1 13 16 1 18 2 19 6 4 3 -10 0 -23 -5 -28z m47 -44
c13 -30 7 -44 -21 -44 -16 0 -18 -3 -9 -14 6 -7 21 -11 34 -9 18 4 25 -2 34
-28 7 -18 11 -35 8 -37 -8 -8 -73 19 -90 38 -9 10 -19 38 -21 62 -2 24 -1 37
2 30 5 -10 10 -8 21 7 19 27 27 26 42 -5z m1053 -60 c-5 -28 -29 -51 -62 -58
-53 -13 -63 26 -19 72 24 27 39 28 39 5 1 -12 6 -8 17 12 14 27 17 28 23 11 4
-11 5 -30 2 -42z m-766 -1223 c-4 -174 -8 -340 -9 -369 l-2 -52 223 0 224 0
-4 29 c-1 16 3 35 9 43 13 15 10 386 -5 534 -4 44 -5 91 -2 104 8 32 30 38 29
8 -1 -13 4 -120 11 -238 9 -147 10 -257 4 -347 l-9 -133 283 0 283 0 26 -26
c23 -23 25 -31 19 -77 -15 -121 -56 -484 -56 -501 0 -17 1 -18 18 -3 16 15 35
21 58 18 6 0 17 -15 24 -31 12 -29 14 -30 59 -24 45 6 48 5 72 -30 13 -20 29
-34 35 -32 18 7 54 -23 54 -45 0 -11 7 -31 16 -45 14 -20 15 -33 7 -75 l-10
-50 236 1 236 1 0 -28 0 -28 -395 -1 c-385 -1 -460 1 -460 15 0 4 24 15 54 25
52 18 71 18 134 0 22 -6 23 -5 11 14 -7 11 -18 18 -23 14 -13 -8 -68 -3 -78 6
-3 4 7 40 22 80 16 39 25 70 21 67 -5 -2 -21 -39 -37 -81 -27 -72 -53 -102
-74 -89 -5 3 -7 12 -4 20 5 13 -101 15 -841 12 l-846 -2 4 22 c2 12 0 28 -4
35 -6 8 -9 1 -10 -22 -1 -19 -2 -42 -3 -50 -1 -21 -33 -24 -59 -7 -18 12 -24
12 -35 1 -6 -7 -12 -14 -12 -16 0 -2 30 -4 67 -6 73 -4 110 -20 76 -33 -10 -4
-165 -8 -345 -8 l-328 -1 0 30 0 30 140 0 c128 0 140 2 140 18 0 10 13 33 30
52 16 19 29 46 30 61 0 31 17 49 48 49 13 0 21 4 17 9 -7 13 34 41 62 41 14 0
24 -8 28 -22 14 -50 28 -77 36 -72 5 3 2 15 -6 27 -21 31 -19 80 5 102 20 18
21 18 46 -6 13 -14 36 -52 50 -85 l25 -59 -6 45 c-21 173 -75 664 -75 685 0
14 11 37 25 51 21 21 34 25 73 24 26 -1 177 -1 336 -1 l288 1 -6 34 c-5 24 -3
35 6 38 10 4 12 73 10 332 -1 180 0 331 3 336 3 5 13 6 22 3 14 -6 15 -36 9
-322z m-605 -1341 c13 0 18 -4 13 -11 -7 -12 23 -9 59 6 13 5 17 2 17 -14 l0
-21 685 0 c624 0 686 2 701 17 9 10 35 18 59 19 39 1 41 0 37 -22 l-4 -24
-287 0 c-157 -1 -338 -1 -401 -2 -63 -1 -293 0 -511 0 l-396 2 -11 25 c-16 34
-15 38 4 31 9 -3 25 -6 35 -6z"/>
<path d="M2348 3933 c6 -2 18 -2 25 0 6 3 1 5 -13 5 -14 0 -19 -2 -12 -5z"/>
<path d="M2170 3741 c0 -5 7 -12 16 -15 14 -5 15 -4 4 9 -14 17 -20 19 -20 6z"/>
<path d="M2785 3240 c-3 -6 1 -7 9 -4 18 7 21 14 7 14 -6 0 -13 -4 -16 -10z"/>
<path d="M3421 1157 c-7 -48 -11 -90 -8 -93 2 -3 8 17 12 43 4 26 10 55 14 63
4 8 5 29 1 45 -4 23 -9 11 -19 -58z"/>
<path d="M3638 1118 c-21 -32 -58 -106 -58 -115 0 -4 18 23 40 61 22 38 39 71
37 73 -3 2 -11 -7 -19 -19z"/>
<path d="M1617 1093 c-4 -6 0 -30 7 -54 9 -30 15 -39 20 -29 8 19 -18 98 -27
83z"/>
<path d="M1510 1028 c5 -15 7 -34 4 -42 -4 -10 0 -13 13 -10 11 3 25 -2 32
-10 8 -9 18 -16 24 -16 6 0 -5 15 -24 33 -18 18 -40 41 -46 52 -11 17 -11 16
-3 -7z"/>
<path d="M3677 1005 l-28 -35 58 2 c50 1 52 2 16 5 -24 2 -43 6 -43 9 0 3 7
16 16 29 24 36 13 31 -19 -10z"/>
<path d="M1410 997 c0 -18 5 -27 15 -27 13 0 14 4 4 23 -17 33 -19 33 -19 4z"/>
</g>
</svg>
