<svg width="188" height="188" viewBox="0 0 188 188" fill="none" xmlns="http://www.w3.org/2000/svg">
<path fill-rule="evenodd" clip-rule="evenodd" d="M0 40C0 17.9086 17.9086 0 40 0H98C120.091 0 138 17.9086 138 40V60H148C170.091 60 188 77.9086 188 100V188H91C68.9086 188 51 170.091 51 148V128H0V40ZM53.5184 86C51.8902 90.3573 51 95.0747 51 100V102H24C19.5817 102 16 98.4183 16 94C16 89.5817 19.5817 86 24 86H53.5184ZM119.542 130.745C128.199 126.273 128.199 113.894 119.542 109.422L83.6716 90.8923C79.7462 88.8645 74.9201 90.4029 72.8923 94.3284C70.8645 98.2538 72.4028 103.08 76.3283 105.108L105.319 120.084L76.3283 135.06C72.4028 137.087 70.8645 141.913 72.8923 145.839C74.9201 149.764 79.7462 151.303 83.6716 149.275L119.542 130.745ZM120 148C115.582 148 112 151.582 112 156C112 160.418 115.582 164 120 164H160C164.418 164 168 160.418 168 156C168 151.582 164.418 148 160 148H120Z" fill="#2E3436"/>
</svg>
