<svg width="220" height="220" viewBox="0 0 220 220" fill="none" xmlns="http://www.w3.org/2000/svg">
<path d="M16 67C16 44.9086 33.9086 27 56 27H114C136.091 27 154 44.9086 154 67V115C154 137.091 136.091 155 114 155H19C17.3431 155 16 153.657 16 152V67Z" fill="url(#paint0_linear_12_2)"/>
<path d="M16 53C16 30.9086 33.9086 13 56 13H114C136.091 13 154 30.9086 154 53V101C154 123.091 136.091 141 114 141H19C17.3431 141 16 139.657 16 138V53Z" fill="#3D98FF"/>
<path d="M130 109H32V106H130V109Z" stroke="#3075C4" stroke-width="8" stroke-linecap="round" stroke-linejoin="round"/>
<path d="M32 109H130" stroke="#C5E0FF" stroke-width="8" stroke-linecap="round"/>
<path d="M67 127C67 104.909 84.9086 87 107 87H164C186.091 87 204 104.909 204 127V212C204 213.657 202.657 215 201 215H107C84.9086 215 67 197.091 67 175V127Z" fill="url(#paint1_linear_12_2)"/>
<path d="M67 113C67 90.9086 84.9086 73 107 73H164C186.091 73 204 90.9086 204 113V198C204 199.657 202.657 201 201 201H107C84.9086 201 67 183.091 67 161V113Z" fill="#279D66"/>
<path fill-rule="evenodd" clip-rule="evenodd" d="M132.019 133.584C132.201 130.613 130.763 127.555 127.706 125.976L91.8357 107.446C89.873 106.432 87.4599 107.201 86.446 109.164C86.0604 109.911 85.9327 110.722 86.0305 111.497C85.9881 111.832 85.989 112.168 86.0305 112.497C85.9881 112.832 85.989 113.168 86.0305 113.497C85.8256 115.115 86.6305 116.762 88.164 117.554L121.131 134.584L88.164 151.613C86.6305 152.406 85.8256 154.052 86.0305 155.67C85.989 155.999 85.9881 156.335 86.0305 156.67C85.989 156.999 85.9881 157.335 86.0305 157.67C85.9327 158.445 86.0604 159.257 86.446 160.003C87.4599 161.966 89.873 162.735 91.8357 161.721L127.706 143.191C130.763 141.612 132.201 138.554 132.019 135.584C132.04 135.251 132.04 134.917 132.019 134.584C132.04 134.251 132.04 133.917 132.019 133.584Z" fill="#1D744B"/>
<path fill-rule="evenodd" clip-rule="evenodd" d="M131.973 137.083C131.671 134.625 130.248 132.289 127.706 130.976L91.8358 112.446C89.8731 111.432 87.4601 112.201 86.4462 114.164C86.3061 114.435 86.2 114.715 86.1265 114.999C86.4012 116.063 87.1108 117.01 88.164 117.554L121.131 134.584L119.195 135.584L124.035 138.084L88.1642 156.613C87.1107 157.158 86.4011 158.105 86.1265 159.169C86.2 159.453 86.306 159.732 86.446 160.003C87.4599 161.966 89.873 162.735 91.8357 161.721L126.891 143.613L127.706 143.191C130.249 141.878 131.671 139.541 131.973 137.083Z" fill="#A9D1BF"/>
<path d="M174 168H134V163H174V168Z" stroke="#1D744B" stroke-width="8" stroke-linecap="round" stroke-linejoin="round"/>
<path fill-rule="evenodd" clip-rule="evenodd" d="M177.874 169.001C177.43 170.725 175.864 172 174 172H134C132.136 172 130.57 170.725 130.126 168.999C130.57 167.275 132.136 166 134 166H174C175.864 166 177.43 167.275 177.874 169.001Z" fill="#A9D1BF"/>
<path d="M124.04 138.09L121.12 134.58L119 135.69L124.04 138.09Z" fill="#1D744B"/>
<defs>
<linearGradient id="paint0_linear_12_2" x1="15" y1="155" x2="154" y2="155" gradientUnits="userSpaceOnUse">
<stop stop-color="#3075C4"/>
<stop offset="0.0185706" stop-color="#3D98FF"/>
<stop offset="0.0360665" stop-color="#3075C4"/>
<stop offset="1" stop-color="#3075C4"/>
</linearGradient>
<linearGradient id="paint1_linear_12_2" x1="67" y1="215" x2="205" y2="215" gradientUnits="userSpaceOnUse">
<stop stop-color="#1D744B"/>
<stop offset="0.0949888" stop-color="#279D66"/>
<stop offset="0.27885" stop-color="#1D744B"/>
<stop offset="0.963743" stop-color="#1D744B"/>
<stop offset="0.981549" stop-color="#279D66"/>
<stop offset="1" stop-color="#1D744B"/>
</linearGradient>
</defs>
</svg>
