<svg width="120" height="120" viewBox="0 0 120 120" fill="none" xmlns="http://www.w3.org/2000/svg">
<path fill-rule="evenodd" clip-rule="evenodd" d="M84.2832 38.1569C82.3046 38.4736 76.255 40.085 73.8195 40.9442C73.1215 41.1903 70.3606 41.8455 68.8339 42.1273C68.1229 42.2585 66.8765 42.5055 66.0641 42.6761C65.2516 42.8467 63.7005 43.0714 62.6172 43.1753C61.5339 43.2792 59.6186 43.4747 58.361 43.6097C55.6904 43.8965 51.1261 44.0883 44.8289 44.1785C37.2157 44.2874 35.9444 44.9611 35.4624 49.1424C34.5203 57.3139 39.9219 63.5318 49.2606 65.0255C70.5916 68.4378 93.1801 59.1583 93.1382 47.0002C93.1152 40.3059 90.0406 37.2352 84.2832 38.1569Z" fill="#1C2A57"/>
<path fill-rule="evenodd" clip-rule="evenodd" d="M63.7011 4.03471C80.5375 6.32775 90.0156 16.7436 96.3015 39.8603C97.2344 43.2911 98.4251 50.3022 98.4235 52.3552C98.4174 60.2707 84.3303 69.0305 67.46 71.6093C64.8669 72.0055 64.0433 72.0718 58.1855 72.3548C57.5761 72.3843 56.3574 72.3565 55.4772 72.2931C54.597 72.2297 52.7696 72.12 51.4162 72.0494C41.1645 71.514 27.9913 66.8658 25.1139 62.7684C24.0381 61.2367 23.9331 60.2961 24.5077 57.3408C26.0087 49.6209 25.7221 42.4857 23.7783 39.1832C22.7032 37.3565 22.9055 35.4299 24.7609 29.8274C30.4484 12.6546 46.9139 1.74833 63.7011 4.03471ZM73.8195 40.9442C76.255 40.085 82.3046 38.4736 84.2832 38.1569C90.0406 37.2352 93.1152 40.3059 93.1382 47.0002C93.1801 59.1583 70.5916 68.4378 49.2606 65.0255C39.9219 63.5318 34.5203 57.3139 35.4624 49.1424C35.9444 44.9611 37.2157 44.2874 44.8289 44.1785C51.1261 44.0883 55.6904 43.8965 58.361 43.6097C59.6186 43.4747 61.5339 43.2792 62.6172 43.1753C63.7005 43.0714 65.2516 42.8467 66.0641 42.6761C66.8765 42.5055 68.1229 42.2585 68.8339 42.1273C70.3606 41.8455 73.1215 41.1903 73.8195 40.9442Z" fill="#F9ED9C"/>
<path d="M98.3393 32.8984C100.241 34.0577 102.09 38.2213 102.626 42.5475C103.319 48.1512 101.831 51.6393 100.91 46.5685C100.405 43.7858 99.4419 40.0486 98.4331 36.9542C97.3842 33.7369 97.2657 33.1736 97.5734 32.8658C97.833 32.6063 97.8621 32.6076 98.3393 32.8984Z" fill="#1755DC"/>
<path d="M20.6828 40.6614C21.6462 41.6248 22.2351 44.8352 22.2297 49.093C22.2243 53.236 21.6656 54.6302 20.5102 53.3836C20.4888 53.3604 20.4687 53.3396 20.45 53.3201C20.4072 53.2757 20.3712 53.2382 20.3408 53.1967C20.1775 52.9738 20.1748 52.6333 20.1577 50.4654L20.1577 50.4635C20.1577 50.4632 20.1577 50.4628 20.1577 50.4624C20.1563 50.2851 20.1548 50.0957 20.1531 49.8931C20.1287 46.9704 19.8824 44.7132 19.4081 43.0665C18.7412 40.7512 19.4449 39.4235 20.6828 40.6614Z" fill="#1755DC"/>
<path d="M29.5357 89.3347C31.5387 89.5708 31.7172 89.8091 31.3024 91.6958C31.1695 92.3 30.9995 93.3206 30.9244 93.9638C30.7008 95.8819 30.4659 96.2891 29.6823 96.117C28.4892 95.8551 26.3689 91.5311 26.6635 89.9608C26.8129 89.1642 27.2605 89.0666 29.5357 89.3347Z" fill="#1755DC"/>
<path d="M30.7336 79.2411C33.5634 81.102 33.9897 81.7971 33.4458 83.6643C32.3593 87.3956 32.0823 87.6127 29.166 87.0192C24.2828 86.0253 23.7478 85.2365 25.9742 82.3128C28.7315 78.6922 29.3207 78.312 30.7336 79.2411Z" fill="#F9ED9C"/>
<path d="M90.1211 79.0436C90.9985 79.7468 93.9447 83.1568 94.0877 83.6344C94.4115 84.715 92.231 86.389 89.2224 87.3695C86.9624 88.1061 86.7063 87.9252 85.5742 84.7927C84.5607 81.9878 84.5995 81.8061 86.5639 80.157C88.5871 78.4586 89.1656 78.2775 90.1211 79.0436Z" fill="#F9ED9C"/>
<path d="M85.796 74.4268C88.1443 75.9459 88.1911 76.4438 86.148 78.1697C84.1835 79.8291 83.7008 79.6786 83.3705 77.304C82.8891 73.842 83.5959 73.0035 85.796 74.4268Z" fill="#E76840"/>
<path d="M41.5873 106.768C47.1556 107.672 52.4621 112.399 49.5683 113.878C46.366 115.515 34.1425 114.754 33.2815 112.864C32.7498 111.697 34.3393 108.737 36.0886 107.636C37.3557 106.838 39.7195 106.465 41.5873 106.768Z" fill="#E76840"/>
<path d="M64.0162 109.692C64.5527 110.285 64.1094 112.095 63.2834 112.683C62.5273 113.222 55.8781 113.463 55.209 112.977C54.3394 112.344 53.8973 110.438 54.4667 109.776C54.509 109.727 54.5456 109.684 54.5871 109.647C54.8352 109.427 55.261 109.406 58.1482 109.356L58.3318 109.352L58.4215 109.351L58.4512 109.35L58.7589 109.345H58.7591H58.7592H58.7594C63.5344 109.264 63.6354 109.27 64.0162 109.692Z" fill="#B19B9E"/>
<path d="M81.4568 106.342C83.8721 106.971 86.6755 110.508 86.1893 112.313C85.5055 114.853 74.1784 115.644 68.6492 113.538C66.6083 112.761 68.1418 109.702 71.3898 108.071C74.1003 106.71 79.3842 105.802 81.4568 106.342Z" fill="#E76840"/>
<path fill-rule="evenodd" clip-rule="evenodd" d="M19.7231 34.0591C23.2517 16.3235 36.5561 2.82782 52.8921 0.413283C61.9381 -0.923734 71.9439 1.03027 79.4207 5.59393C87.5368 10.5479 92.0839 16.439 95.9735 27.0397C96.2501 27.7934 96.7554 28.3738 97.3568 28.6285C99.1551 29.3904 99.3914 29.5242 99.9021 30.0702C100.531 30.7422 102.209 33.8871 102.209 33.8871C102.209 33.8871 104.463 37.1147 104.777 42.7725C104.995 46.7002 105.035 47.0701 105.344 47.985C106.481 51.3582 105.557 54.5832 102.977 56.2482C101.793 57.0114 101.731 57.0933 101.044 58.7794C100.191 60.8698 99.709 61.4433 96.6115 64.0499C94.3882 65.9207 91.1541 68.2401 88.8608 69.6084L88.7444 69.6778C87.2972 70.5409 86.574 70.9722 86.5365 71.4565C86.4991 71.9403 87.146 72.4771 88.4391 73.5501L88.5432 73.6364C90.1542 74.9735 90.5485 75.4937 91.1309 77.0504C91.3648 77.6756 91.6867 78.0568 93.8212 80.2353C97.3694 83.857 97.4499 84.3937 94.8481 87.0786C93.5272 88.4416 93.4077 88.6783 93.1448 90.4485C92.6538 93.7554 91.8366 95.4265 89.5594 97.78C88.3861 98.9927 88.3834 98.9984 88.0333 101C87.8871 101.836 87.518 103.264 87.2132 104.174C86.5404 106.182 86.5473 106.259 87.5427 107.87C88.4777 109.383 88.7676 110.094 89.3293 112.252C89.9311 114.565 90.0045 114.662 91.3279 114.907C92.1535 115.059 92.6548 115.293 92.7636 115.577C92.9586 116.085 92.1537 117.97 91.6391 118.21C90.285 118.84 89.6053 118.971 86.7453 119.149C85.188 119.247 83.36 119.414 82.6829 119.521C79.6195 120.007 54.1882 120.182 47.1678 119.767C45.4413 119.665 41.8649 119.549 39.2204 119.51C36.5061 119.47 33.5843 119.359 32.5113 119.256C31.4658 119.156 29.9735 119.018 29.1948 118.95C27.2235 118.778 25.1325 117.797 25.1325 117.045C25.1325 115.808 26.0719 114.475 27.0899 114.267C29.3836 113.798 29.9055 113.301 30.6777 110.847C30.9345 110.031 31.3213 109.17 31.753 108.454C32.8959 106.559 32.9103 106.429 32.1479 104.918C31.7018 104.033 31.2189 102.436 30.9156 100.841C30.6282 99.3304 30.5053 99.1396 29.3002 98.334C26.322 96.343 24.8267 93.8166 24.3137 89.909C24.0997 88.2787 23.9136 87.8551 23.0397 87.0085C21.1682 85.1955 21.4892 84.2538 25.5584 79.6224C26.56 78.4825 26.7961 78.1296 27.0987 77.321C27.4632 76.3468 27.9488 75.6701 29.0775 74.5635C30.9627 72.7155 30.9521 72.6857 27.8626 71.1393C24.1842 69.2981 22.9161 68.163 21.5205 66.9137C21.411 66.8157 21.3007 66.7169 21.1884 66.6171C20.5568 66.2722 20.006 65.8899 19.5384 65.5158C18.1108 64.3733 17.2309 62.7267 16.4501 61.0732L15.562 59.1925C14.731 57.4328 14.4712 55.4595 14.244 53.5267V53.5267C13.703 48.9231 14.068 44.9791 15.2751 42.3839C15.6058 41.6729 15.9987 40.7035 16.1482 40.2296C16.542 38.9817 16.8843 38.4581 17.9713 37.4418C19.2676 36.2297 19.306 36.1557 19.7231 34.0591ZM63.7011 4.03471C80.5375 6.32775 90.0156 16.7436 96.3015 39.8603C97.2344 43.2911 98.4251 50.3022 98.4235 52.3552C98.4174 60.2707 84.3303 69.0305 67.46 71.6093C64.8669 72.0055 64.0433 72.0718 58.1855 72.3548C57.5761 72.3843 56.3574 72.3565 55.4772 72.2931C54.597 72.2297 52.7696 72.12 51.4162 72.0494C41.1645 71.514 27.9913 66.8658 25.1139 62.7684C24.0381 61.2367 23.9331 60.2961 24.5077 57.3408C26.0087 49.6209 25.7221 42.4857 23.7783 39.1832C22.7032 37.3565 22.9055 35.4299 24.7609 29.8274C30.4484 12.6546 46.9139 1.74833 63.7011 4.03471ZM98.3393 32.8984C100.241 34.0577 102.09 38.2213 102.626 42.5475C103.319 48.1512 101.831 51.6393 100.91 46.5685C100.405 43.7858 99.4419 40.0486 98.4331 36.9542C97.3842 33.7369 97.2657 33.1736 97.5734 32.8658C97.833 32.6063 97.8621 32.6076 98.3393 32.8984ZM20.6828 40.6614C21.6462 41.6248 22.2351 44.8352 22.2297 49.093C22.2243 53.236 21.6656 54.6302 20.5102 53.3836C20.4888 53.3604 20.4687 53.3396 20.45 53.3201C20.4072 53.2757 20.3712 53.2382 20.3408 53.1967C20.1775 52.9738 20.1748 52.6333 20.1577 50.4654L20.1577 50.4635L20.1577 50.4624C20.1563 50.2851 20.1548 50.0957 20.1531 49.8931C20.1287 46.9704 19.8824 44.7132 19.4081 43.0665C18.7412 40.7512 19.4449 39.4235 20.6828 40.6614ZM85.796 74.4268C88.1443 75.9459 88.1911 76.4438 86.148 78.1697C84.1835 79.8291 83.7008 79.6786 83.3705 77.304C82.8891 73.842 83.5959 73.0035 85.796 74.4268ZM90.1211 79.0436C90.9985 79.7468 93.9447 83.1568 94.0877 83.6344C94.4115 84.715 92.231 86.389 89.2224 87.3695C86.9624 88.1061 86.7063 87.9252 85.5742 84.7927C84.5607 81.9878 84.5995 81.8061 86.5639 80.157C88.5871 78.4586 89.1656 78.2775 90.1211 79.0436ZM30.7336 79.2411C33.5634 81.102 33.9897 81.7971 33.4458 83.6643C32.3593 87.3956 32.0823 87.6127 29.166 87.0192C24.2828 86.0253 23.7478 85.2365 25.9742 82.3128C28.7315 78.6922 29.3207 78.312 30.7336 79.2411ZM29.5357 89.3347C31.5387 89.5708 31.7172 89.8091 31.3024 91.6958C31.1695 92.3 30.9995 93.3206 30.9244 93.9638C30.7008 95.8819 30.4659 96.2891 29.6823 96.117C28.4892 95.8551 26.3689 91.5311 26.6635 89.9608C26.8129 89.1642 27.2605 89.0666 29.5357 89.3347ZM81.4568 106.342C83.8721 106.971 86.6755 110.508 86.1893 112.313C85.5055 114.853 74.1784 115.644 68.6492 113.538C66.6083 112.761 68.1418 109.702 71.3898 108.071C74.1003 106.71 79.3842 105.802 81.4568 106.342ZM41.5873 106.768C47.1556 107.672 52.4621 112.399 49.5683 113.878C46.366 115.515 34.1425 114.754 33.2815 112.864C32.7498 111.697 34.3393 108.737 36.0886 107.636C37.3557 106.838 39.7195 106.465 41.5873 106.768ZM64.0162 109.692C64.5527 110.285 64.1094 112.095 63.2834 112.683C62.5273 113.222 55.8781 113.463 55.209 112.977C54.3394 112.344 53.8973 110.438 54.4667 109.776C54.509 109.727 54.5456 109.684 54.5871 109.647C54.8352 109.427 55.261 109.406 58.1482 109.356L58.3318 109.352L58.4215 109.351L58.4512 109.35L58.7589 109.345H58.7591H58.7592H58.7594C63.5344 109.264 63.6354 109.27 64.0162 109.692ZM80.3469 75.9463C80.3025 75.6848 80.1338 75.3387 79.9721 75.1769C79.5616 74.7665 79.4944 74.7815 77.0817 75.8232C73.3855 77.4192 72.5677 77.6502 68.0337 78.3784C63.4938 79.1076 56.771 79.4159 52.7552 79.0793C51.7997 78.9991 50.1463 78.9323 49.0811 78.9308C47.012 78.928 46.772 78.8851 44.3365 78.0836C43.738 77.8867 43.1994 77.7043 42.7135 77.5398L42.7133 77.5397C40.3937 76.7543 39.276 76.3759 38.5876 76.7623C37.9475 77.1217 37.6786 78.1425 37.1598 80.1127C37.043 80.5565 36.9134 81.0485 36.764 81.592C36.4478 82.743 35.7717 84.9866 35.2618 86.5777L35.25 86.6146C34.0331 90.4114 33.2505 94.3419 33.1341 95.4835C34.242 103.627 67.0215 109.597 81.3749 101.063C86.0036 98.3112 86.4589 96.0632 83.8975 88.6089C81.4466 81.4758 81.0407 80.0285 80.3469 75.9463Z" fill="#1C2A57"/>
<path d="M79.9721 75.1769C80.1338 75.3387 80.3025 75.6848 80.3469 75.9463C81.0407 80.0285 81.4466 81.4758 83.8975 88.6089C86.4589 96.0632 86.0036 98.3112 81.3749 101.063C67.0215 109.597 34.242 103.627 33.1341 95.4835C33.2505 94.3419 34.0331 90.4114 35.25 86.6146L35.2618 86.5777C35.7717 84.9866 36.4478 82.743 36.764 81.592C36.9134 81.0485 37.043 80.5565 37.1598 80.1127C37.6786 78.1425 37.9475 77.1217 38.5876 76.7623C39.276 76.3759 40.3937 76.7543 42.7133 77.5397L42.7135 77.5398C43.1994 77.7043 43.738 77.8867 44.3365 78.0836C46.772 78.8851 47.012 78.928 49.0811 78.9308C50.1463 78.9323 51.7997 78.9991 52.7552 79.0793C56.771 79.4159 63.4938 79.1076 68.0337 78.3784C72.5677 77.6502 73.3855 77.4192 77.0817 75.8232C79.4944 74.7815 79.5616 74.7665 79.9721 75.1769Z" fill="#1755DC"/>
<circle cx="46.4292" cy="51.4935" r="4.55479" fill="#F9ED9C"/>
<circle cx="83.8524" cy="46.3232" r="4.55479" fill="#F9ED9C"/>
<ellipse cx="68.3695" cy="60.8562" rx="5.35496" ry="0.98482" transform="rotate(-8.17573 68.3695 60.8562)" fill="#E76840"/>
</svg>
