<svg width="198" height="198" viewBox="0 0 198 198" fill="none" xmlns="http://www.w3.org/2000/svg">
<path d="M6.89641 46.6223C8.65131 25.9145 25.9715 10 46.7535 10H98C120.091 10 138 27.9086 138 50V98C138 120.091 120.091 138 98 138H10L0 128L6.89641 46.6223Z" fill="#0078FF"/>
<path d="M10 40C10 17.9086 27.9086 0 50 0H98C125.614 0 148 22.3858 148 50V88C148 110.091 130.091 128 108 128H10V40Z" fill="#C5E0FF"/>
<path d="M0 40C0 17.9086 17.9086 0 40 0H98C120.091 0 138 17.9086 138 40V88C138 110.091 120.091 128 98 128H0V40Z" fill="#3D98FF"/>
<path d="M18 96H116" stroke="#0078FF" stroke-width="8" stroke-linecap="round"/>
<path d="M16 93H114" stroke="#C5E0FF" stroke-width="8" stroke-linecap="round"/>
<path d="M51 110C51 87.9086 68.9086 70 91 70H148C170.091 70 188 87.9086 188 110V180.958C188 185.467 189.791 189.791 192.979 192.979L198 198H101C73.3858 198 51 175.614 51 148V110Z" fill="#007B42"/>
<path d="M61 100C61 77.9086 78.9086 60 101 60H148C175.614 60 198 82.3858 198 110V198L188 188H101C78.9086 188 61 170.091 61 148V100Z" fill="#A9D1BF"/>
<path d="M51 100C51 77.9086 68.9086 60 91 60H148C170.091 60 188 77.9086 188 100V188H91C68.9086 188 51 170.091 51 148V100Z" fill="#279D66"/>
<path d="M76 146.167L111.87 127.637C114.756 126.147 114.756 122.02 111.87 120.53L76 102" stroke="#007B42" stroke-width="8" stroke-linecap="round"/>
<path d="M120 156H160" stroke="#007B42" stroke-width="8" stroke-linecap="round"/>
<path d="M74 143.167L109.87 124.637C112.756 123.147 112.756 119.02 109.87 117.53L74 99" stroke="#A9D1BF" stroke-width="8" stroke-linecap="round"/>
<path d="M118 154H158" stroke="#A9D1BF" stroke-width="8" stroke-linecap="round"/>
</svg>
