<?xml version="1.0" encoding="UTF-8"?>
<svg xmlns="http://www.w3.org/2000/svg" height="16px" viewBox="0 0 16 16" width="16px"><g fill="#222222"><path d="m 4.492188 1 c -1.9375 0 -3.5 1.5625 -3.5 3.5 s 1.5625 3.5 3.5 3.5 h 7 c 1.941406 0 3.5 -1.5625 3.5 -3.5 s -1.558594 -3.5 -3.5 -3.5 z m 7 1 c 1.386718 0 2.5 1.113281 2.5 2.5 c 0 1.382812 -1.113282 2.5 -2.5 2.5 c -1.382813 0 -2.5 -1.117188 -2.5 -2.5 c 0 -1.386719 1.117187 -2.5 2.5 -2.5 z m 0 0"/><path d="m 4.492188 9 c -1.9375 0 -3.5 1.5625 -3.5 3.5 s 1.5625 3.5 3.5 3.5 h 7 c 1.941406 0 3.5 -1.5625 3.5 -3.5 s -1.558594 -3.5 -3.5 -3.5 z m 0 1 c 1.386718 0 2.5 1.113281 2.5 2.5 c 0 1.382812 -1.113282 2.5 -2.5 2.5 c -1.382813 0 -2.5 -1.117188 -2.5 -2.5 c 0 -1.386719 1.117187 -2.5 2.5 -2.5 z m 0 0" fill-opacity="0.34902"/></g></svg>
