<?xml version="1.0" encoding="UTF-8"?>
<svg xmlns="http://www.w3.org/2000/svg" height="16px" viewBox="0 0 16 16" width="16px"><path d="m 11.5 0 c -2.484375 0 -4.5 2.015625 -4.5 4.5 c 0 0.296875 0.027344 0.589844 0.085938 0.878906 l -6.351563 6.351563 c -0.472656 0.472656 -0.734375 1.105469 -0.734375 1.769531 s 0.261719 1.296875 0.734375 1.769531 c 0.972656 0.972657 2.558594 0.972657 3.535156 0 l 6.351563 -6.355469 c 0.289062 0.058594 0.582031 0.085938 0.878906 0.085938 c 2.484375 0 4.5 -2.015625 4.5 -4.5 c 0 -0.574219 -0.109375 -1.144531 -0.324219 -1.675781 l -2.175781 2.175781 h -2.5 v -2.5 l 2.175781 -2.175781 c -0.53125 -0.214844 -1.101562 -0.324219 -1.675781 -0.324219 z m -9 12.5 c 0.550781 0 1 0.449219 1 1 s -0.449219 1 -1 1 s -1 -0.449219 -1 -1 s 0.449219 -1 1 -1 z m 0 0" fill="#222222"/></svg>
